<?xml version="1.0" encoding="UTF-8" standalone="no"?><!-- Generator: Gravit.io --><svg xmlns="http://www.w3.org/2000/svg" xmlns:xlink="http://www.w3.org/1999/xlink" style="isolation:isolate" viewBox="0 0 800 800" width="800pt" height="800pt"><defs><clipPath id="_clipPath_np8qAkEgFNjfk1l4c0ZLQU2ba9dBZgbU"><rect width="800" height="800"/></clipPath></defs><g clip-path="url(#_clipPath_np8qAkEgFNjfk1l4c0ZLQU2ba9dBZgbU)"><path d=" M 400 400 L 0 400 L 0 800 C 0 579.234 179.234 400 400 400 Z  M 400 400 L 800 400 L 800 800 L 800 800 L 800 1200 L 400 1200 L 400 1200 L 0 1200 L 0 800 C 0 1020.766 179.234 1200 400 1200 L 400 1200 L 400 1200 C 620.766 1200 800 1020.766 800 800 L 800 800 L 800 800 C 800 579.234 620.766 400 400 400 Z " fill-rule="evenodd" fill="rgb(255,255,255)"/></g></svg>